FFmpeg version SVN-r25716, Copyright (c) 2000-2010 the FFmpeg developers  built on Nov 10 2010 12:23:18 with gcc 4.1.2 20080704 (Red Hat 4.1.2-48)  configuration: --enable-libmp3lame --enable-shared --disable-mmx --arch=x86_64  libavutil     50.33. 0 / 50.33. 0  libavcore      0.12. 1 /  0.12. 1  libavcodec    52.94. 4 / 52.94. 4  libavformat   52.84. 0 / 52.84. 0  libavdevice   52. 2. 2 / 52. 2. 2  libavfilter    1.59. 0 /  1.59. 0  libswscale     0.12. 0 /  0.12. 0Seems stream 0 codec frame rate differs from container frame rate: 600.00 (600/1) -> 10.00 (10/1)Input #0, mov,mp4,m4a,3gp,3g2,mj2, from '/RAID10/data/converted_video_files/11817.mov':  Duration: 00:00:12.00, start: 0.000000, bitrate: 4928 kb/s    Stream #0.0(eng): Video: rpza, rgb555le, 311x512, 4927 kb/s, 10 fps, 10 tbr, 600 tbn, 600 tbc[buffer @ 0x160d3a60] w:311 h:512 pixfmt:rgb555le[ffsink @ 0x160d53e0] auto-inserting filter 'auto-inserted scaler 0' between the filter 'src' and the filter 'out'[scale @ 0x160d2a10] w:311 h:512 fmt:rgb555le -> w:311 h:512 fmt:yuv420p flags:0x4Output #0, flv, to '/RAID10/data/converted_video_files/11817.flv':  Metadata:    encoder         : Lavf52.84.0    Stream #0.0(eng): Video: flv, yuv420p, 311x512, q=2-31, 600 kb/s, 1k tbn, 24 tbcStream mapping:  Stream #0.0 -> #0.0Press [q] to stop encodingframe=   48 fps=  0 q=20.6 size=     414kB time=4.75 bitrate= 714.5kbits/s    frame=   95 fps= 90 q=10.4 size=     643kB time=9.46 bitrate= 557.1kbits/s    frame=  120 fps= 98 q=1.6 Lsize=     678kB time=11.96 bitrate= 464.2kbits/s    video:676kB audio:0kB global headers:0kB muxing overhead 0.307886%